<svg xmlns="http://www.w3.org/2000/svg" version="1.1" xmlns:xlink="http://www.w3.org/1999/xlink" width="1000" height="1000"><metadata><rdf:RDF xmlns:rdf="http://www.w3.org/1999/02/22-rdf-syntax-ns#" xmlns:dc="http://purl.org/dc/elements/1.1/"><rdf:Description><dc:creator>RealFaviconGenerator</dc:creator><dc:source>https://realfavicongenerator.net</dc:source></rdf:Description></rdf:RDF></metadata><g clip-path="url(#SvgjsClipPath1798)"><rect width="1000" height="1000" fill="#000000"></rect><g transform="matrix(10,0,0,10,0,0)"><svg xmlns="http://www.w3.org/2000/svg" viewBox="0 0 100 100" width="100" height="100"><path fill="#FFFFFF" d="M25.41,63.934c0.018,0.029,0.03,0.054,0.057,0.074c0.01,0.007,0.01,0.021,0.021,0.026l16.002,9.238
  c0.001,0.001,0.001,0.001,0.001,0.001l0.236,0.137c0,0,0.001,0,0.002,0l0,0l0,0l16.22,9.365h0.001
  c0.038,0.021,0.08,0.033,0.124,0.033s0.086-0.012,0.124-0.033h0.001l16.222-9.366c0.011-0.006,0.011-0.02,0.021-0.026
  c0.026-0.021,0.04-0.045,0.057-0.074c0.017-0.028,0.03-0.052,0.035-0.084c0.001-0.012,0.013-0.02,0.013-0.031V54.455v-18.74
  c0-0.012-0.012-0.02-0.013-0.032c-0.003-0.022-0.008-0.039-0.017-0.059c-0.004-0.011,0.002-0.023-0.004-0.034
  s-0.02-0.011-0.027-0.021c-0.014-0.018-0.026-0.03-0.044-0.044c-0.01-0.007-0.01-0.021-0.021-0.026l-16.222-9.366l-16.222-9.374
  c-0.011-0.006-0.023,0-0.034-0.004c-0.031-0.013-0.058-0.013-0.091-0.013s-0.061,0-0.092,0.013
  c-0.011,0.004-0.022-0.002-0.033,0.004l-16.239,9.374c-0.011,0.006-0.011,0.019-0.021,0.026c-0.018,0.014-0.03,0.026-0.044,0.044
  c-0.008,0.009-0.021,0.01-0.027,0.021s0,0.023-0.005,0.034c-0.008,0.021-0.013,0.037-0.016,0.06
  c-0.001,0.012-0.013,0.019-0.013,0.031v18.738v18.73c0,0.012,0.012,0.02,0.013,0.031C25.38,63.882,25.395,63.905,25.41,63.934z
  M73.295,54.743l-14.509,8.374c-0.062-0.062-0.134-0.119-0.213-0.166c-0.079-0.045-0.164-0.078-0.25-0.101V46.055
  c0.087-0.022,0.171-0.056,0.25-0.102l14.722-8.505V54.743z M59.036,63.551l14.259-8.23v17.295l-14.222,8.211V63.818
  C59.073,63.727,59.06,63.637,59.036,63.551z M57.573,45.954c0.079,0.046,0.164,0.079,0.25,0.101v16.795
  c-0.087,0.022-0.171,0.056-0.25,0.102l-15.472,8.941V54.599l15.259-8.811C57.423,45.852,57.494,45.908,57.573,45.954z
  M42.102,54.021V35.859l14.972-8.644v17.873c0,0.092,0.014,0.181,0.037,0.268L42.102,54.021z M41.852,35.427l-14.988-8.645
  l14.988-8.652l14.973,8.652L41.852,35.427z M58.323,44.655V26.782l15.472,8.933L58.323,44.655z"></path></svg></g></g><defs><clipPath id="SvgjsClipPath1798"><rect width="1000" height="1000" x="0" y="0" rx="500" ry="500"></rect></clipPath></defs></svg>